                                                                        S      1
,,22HUntitled hub with hole,22HUntitled hub with hole,7Hunknown,7HunknowG      1
n,32,38,7,99,15,,1.,2,2HMM,1,0.08,15H20171031.171722,0.01,10000.,7HunknoG      2
wn,7Hunknown,11,0,;                                                     G      3
     186       1                                                00000000D      1
     186            -111       1       0                               0D      2
     514       2                                                00010000D      3
     514                       1       1                               0D      4
     510       3                                                00010000D      5
     510            -111       1       1                               0D      6
     510       4                                                00010000D      7
     510            -111       1       1                               0D      8
     510       5                                                00010000D      9
     510            -111       1       1                               0D     10
     510       6                                                00010000D     11
     510            -111       1       1                               0D     12
     510       7                                                00010000D     13
     510            -111       1       1                               0D     14
     510       8                                                00010000D     15
     510            -111       1       1                               0D     16
     510       9                                                00010000D     17
     510            -111       1       1                               0D     18
     508      10                                                00010000D     19
     508                       2       1                               0D     20
     508      12                                                00010000D     21
     508                       1       1                               0D     22
     508      13                                                00010000D     23
     508                       1       1                               0D     24
     508      14                                                00010000D     25
     508                       1       1                               0D     26
     508      15                                                00010000D     27
     508                       1       1                               0D     28
     508      16                                                00010000D     29
     508                       1       1                               0D     30
     508      17                                                00010000D     31
     508                       1       1                               0D     32
     508      18                                                00010000D     33
     508                       1       1                               0D     34
     508      19                                                00010000D     35
     508                       1       1                               0D     36
     508      20                                                00010000D     37
     508                       1       1                               0D     38
     508      21                                                00010000D     39
     508                       1       1                               0D     40
     508      22                                                00010000D     41
     508                       1       1                               0D     42
     508      23                                                00010000D     43
     508                       1       1                               0D     44
     508      24                                                00010000D     45
     508                       2       1                               0D     46
     508      26                                                00010000D     47
     508                       2       1                               0D     48
     126      28                                                00010000D     49
     126       0              26       0                               0D     50
     126      54                                                00010000D     51
     126       0              26       0                               0D     52
     126      80                                                00010000D     53
     126       0               4       0                               0D     54
     126      84                                                00010000D     55
     126       0              35       0                               0D     56
     126     119                                                00010000D     57
     126       0              15       0                               0D     58
     126     134                                                00010000D     59
     126       0              10       0                               0D     60
     126     144                                                00010000D     61
     126       0               2       0                               0D     62
     126     146                                                00010000D     63
     126       0               9       0                               0D     64
     126     155                                                00010000D     65
     126       0              37       0                               0D     66
     126     192                                                00010000D     67
     126       0              16       0                               0D     68
     126     208                                                00010000D     69
     126       0              37       0                               0D     70
     126     245                                                00010000D     71
     126       0              16       0                               0D     72
     126     261                                                00010000D     73
     126       0              10       0                               0D     74
     126     271                                                00010000D     75
     126       0               2       0                               0D     76
     126     273                                                00010000D     77
     126       0               9       0                               0D     78
     126     282                                                00010000D     79
     126       0              28       0                               0D     80
     126     310                                                00010000D     81
     126       0              27       0                               0D     82
     126     337                                                00010000D     83
     126       0              28       0                               0D     84
     126     365                                                00010000D     85
     126       0              27       0                               0D     86
     126     392                                                00010000D     87
     126       0               4       0                               0D     88
     126     396                                                00010000D     89
     126       0               4       0                               0D     90
     128     400                                                00010000D     91
     128       0    -111      21       0                               0D     92
     128     421                                                00010000D     93
     128       0    -111      11       0                               0D     94
     128     432                                                00010000D     95
     128       0    -111      11       0                               0D     96
     128     443                                                00010000D     97
     128       0    -111       3       0                               0D     98
     128     446                                                00010000D     99
     128       0    -111       3       0                               0D    100
     128     449                                                00010000D    101
     128       0    -111      27       0                               0D    102
     128     476                                                00010000D    103
     128       0    -111      27       0                               0D    104
     502     503                                                00010000D    105
     502                      12       1                               0D    106
     504     515                                                00010001D    107
     504                       6       1                               0D    108
     406     521                                                00000000D    109
     406                       1      15                               0D    110
     314     522                                                00000200D    111
     314                       2       0                               0D    112
186,3,1,0,0,1,109;                                                     1P      1
514,7,5,1,7,1,9,1,11,1,13,1,15,1,17,1;                                 3P      2
510,91,1,1,19;                                                         5P      3
510,93,4,1,21,23,25,27;                                                7P      4
510,95,4,1,29,31,33,35;                                                9P      5
510,97,2,1,37,39;                                                     11P      6
510,99,2,1,41,43;                                                     13P      7
510,101,1,1,45;                                                       15P      8
510,103,1,1,47;                                                       17P      9
508,6,0,107,1,0,0,0,107,2,0,0,0,107,3,1,0,0,107,4,0,0,0,107,5,0,      19P     10
0,0,107,3,0,0;                                                        19P     11
508,4,0,107,6,0,0,0,107,7,1,0,0,107,8,1,0,0,107,7,0,0;                21P     12
508,2,0,107,9,1,0,0,107,10,1,0;                                       23P     13
508,2,0,107,11,1,0,0,107,12,1,0;                                      25P     14
508,2,0,107,4,1,0,0,107,5,1,0;                                        27P     15
508,4,0,107,13,0,0,0,107,14,1,0,0,107,15,1,0,0,107,14,0,0;            29P     16
508,2,0,107,16,1,0,0,107,17,1,0;                                      31P     17
508,2,0,107,18,1,0,0,107,19,1,0;                                      33P     18
508,2,0,107,1,1,0,0,107,2,1,0;                                        35P     19
508,1,0,107,13,1,0;                                                   37P     20
508,1,0,107,6,1,0;                                                    39P     21
508,1,0,107,15,0,0;                                                   41P     22
508,1,0,107,8,0,0;                                                    43P     23
508,6,0,107,18,0,0,0,107,19,0,0,0,107,20,1,0,0,107,11,0,0,0,107,      45P     24
12,0,0,0,107,20,0,0;                                                  45P     25
508,6,0,107,16,0,0,0,107,17,0,0,0,107,21,1,0,0,107,9,0,0,0,107,       47P     26
10,0,0,0,107,21,0,0;                                                  47P     27
126,18,3,0,0,1,0,-0.379599726163202,-0.379599726163202,               49P     28
-0.379599726163202,-0.379599726163202,-0.284699960722736,             49P     29
-0.284699960722736,-0.18980019528227,-0.18980019528227,               49P     30
-0.0949000976411347,-0.0949000976411347,0.,0.,0.,                     49P     31
0.0949000976411347,0.0949000976411347,0.18980019528227,               49P     32
0.18980019528227,0.284699960722736,0.284699960722736,                 49P     33
0.379599726163202,0.379599726163202,0.379599726163202,                49P     34
0.379599726163202,1.,1.,1.,1.,1.,1.,1.,1.,1.,1.,1.,1.,1.,1.,1.,       49P     35
1.,1.,1.,1.,25.,5.55111512312578D-16,7.48250014901161,25.,            49P     36
-0.316332551468221,7.48250014901161,24.9933812337303,                 49P     37
-0.653604424563993,7.54576315322545,24.9694560155798,                 49P     38
-1.27380160400264,7.80275017813378,24.9524889689334,                  49P     39
-1.55674486006325,7.9964623658006,24.9205937704728,                   49P     40
-2.00353856521984,8.44325607095718,24.9035890272243,                  49P     41
-2.19725014257911,8.72619898424864,24.8795775056483,                  49P     42
-2.45423671221047,9.34639501521691,24.8729208930113,-2.5175,          49P     43
9.68366649020783,24.8729208930113,-2.5175,10.0000001490116,           49P     44
24.8729208930113,-2.5175,10.3163338078154,24.8795775056483,           49P     45
-2.45423671221047,10.6536052828063,24.9035890272243,                  49P     46
-2.19725014257911,11.2738013137746,24.9205937704728,                  49P     47
-2.00353856521984,11.556744227066,24.9524889689334,                   49P     48
-1.55674486006325,12.0035379322226,24.9694560155798,                  49P     49
-1.27380160400264,12.1972501198894,24.9933812337303,                  49P     50
-0.653604424563994,12.4542371447978,25.,-0.316332551468222,           49P     51
12.5175001490116,25.,-2.08166817117217D-16,12.5175001490116,          49P     52
-0.379599726163202,0.379599726163202,0.,0.,0.;                        49P     53
126,17,3,0,0,1,0,0.379599726163202,0.379599726163202,                 51P     54
0.379599726163202,0.379599726163202,0.474499491603669,                51P     55
0.474499491603669,0.569399257044135,0.569399257044135,                51P     56
0.66429935468527,0.66429935468527,0.759199452326405,                  51P     57
0.759199452326405,0.85409954996754,0.85409954996754,                  51P     58
0.948999647608674,0.948999647608674,1.04389941304914,                 51P     59
1.04389941304914,1.13879917848961,1.13879917848961,                   51P     60
1.13879917848961,1.13879917848961,1.,1.,1.,1.,1.,1.,1.,1.,1.,1.,      51P     61
1.,1.,1.,1.,1.,1.,1.,1.,25.,-2.77555756156289D-16,                    51P     62
12.5175001490116,25.,0.316332551468221,12.5175001490116,              51P     63
24.9933812337303,0.653604424563994,12.4542371447978,                  51P     64
24.9694560155798,1.27380160400264,12.1972501198894,                   51P     65
24.9524889689334,1.55674486006325,12.0035379322226,                   51P     66
24.9205937704728,2.00353856521984,11.556744227066,                    51P     67
24.9035890272243,2.19725014257911,11.2738013137746,                   51P     68
24.8795775056483,2.45423671221047,10.6536052828063,                   51P     69
24.8729208930113,2.5175,10.3163338078154,24.8729208930113,            51P     70
2.5175,9.68366649020783,24.8795775056482,2.45423671221047,            51P     71
9.3463950152169,24.9035890272243,2.19725014257911,                    51P     72
8.72619898424864,24.9205937704728,2.00353856521984,                   51P     73
8.44325607095718,24.9524889689334,1.55674486006325,                   51P     74
7.9964623658006,24.9694560155798,1.27380160400264,                    51P     75
7.80275017813378,24.9933812337303,0.653604424563995,                  51P     76
7.54576315322545,25.,0.316332551468223,7.48250014901161,25.,          51P     77
4.16333634234434D-16,7.48250014901161,0.379599726163202,              51P     78
1.13879917848961,0.,0.,0.;                                            51P     79
126,1,1,0,0,1,0,-2.56083097699595D-18,-2.56083097699595D-18,          53P     80
4.9999999254942,4.9999999254942,1.,1.,25.,0.,12.5175001490116,        53P     81
10.,1.38777878078145D-16,12.5175001490116,-2.56083097699595D-18,      53P     82
4.9999999254942,0.,0.,0.;                                             53P     83
126,25,3,0,0,1,0,0.,0.,0.,0.,0.0952808713349747,                      55P     84
0.0952808713349747,0.190561742669949,0.190561742669949,               55P     85
0.28582890333178,0.28582890333178,0.381096063993611,                  55P     86
0.381096063993611,0.476363224655442,0.476363224655442,                55P     87
0.571630385317273,0.571630385317273,0.666911256652247,                55P     88
0.666911256652247,0.762192127987222,0.762192127987222,                55P     89
0.857472999322197,0.857472999322197,0.952753870657171,                55P     90
0.952753870657171,1.048021031319,1.048021031319,                      55P     91
1.14328819198083,1.14328819198083,1.14328819198083,                   55P     92
1.14328819198083,1.,1.,1.,1.,1.,1.,1.,1.,1.,1.,1.,1.,1.,1.,1.,        55P     93
1.,1.,1.,1.,1.,1.,1.,1.,1.,1.,1.,9.67792300806325,-2.5175,            55P     94
10.0000001490116,9.67792300806325,-2.5175,9.6823972445617,            55P     95
9.69518597002872,-2.45374617786253,9.34461004297376,                  55P     96
9.75670363893706,-2.19641410331191,8.72478559345032,                  55P     97
9.79998051098766,-2.00290533557421,8.44262284131155,                  55P     98
9.88057230769857,-1.55740936287064,7.99712686860798,                  55P     99
9.92324260889925,-1.27523327052331,7.80359311287854,                  55P    100
9.98335940913512,-0.655361481253894,7.54624278972699,10.,             55P    101
-0.317557202206103,7.48250014901161,10.,0.317557202206103,            55P    102
7.48250014901161,9.98335940913512,0.655361481253894,                  55P    103
7.54624278972699,9.92324260889925,1.27523327052331,                   55P    104
7.80359311287854,9.88057230769857,1.55740936287064,                   55P    105
7.99712686860798,9.79998051098766,2.00290533557421,                   55P    106
8.44262284131155,9.75670363893706,2.19641410331191,                   55P    107
8.72478559345032,9.69518597002872,2.45374617786253,                   55P    108
9.34461004297376,9.67792300806325,2.5175,9.6823972445617,             55P    109
9.67792300806325,2.5175,10.3176030534615,9.69518597002873,            55P    110
2.45374617786253,10.6553902550495,9.75670363893706,                   55P    111
2.19641410331191,11.2752147045729,9.79998051098766,                   55P    112
2.00290533557421,11.5573774567117,9.88057230769857,                   55P    113
1.55740936287064,12.0028734294152,9.92324260889925,                   55P    114
1.27523327052331,12.1964071851447,9.98335940913512,                   55P    115
0.655361481253896,12.4537575082962,10.,0.317557202206103,             55P    116
12.5175001490116,10.,2.77555756156289D-16,12.5175001490116,0.,        55P    117
1.14328819198083,0.,0.,0.;                                            55P    118
126,9,3,0,0,1,0,1.14328819198083,1.14328819198083,                    57P    119
1.14328819198083,1.14328819198083,1.23855535264266,                   57P    120
1.23855535264266,1.33382251330449,1.33382251330449,                   57P    121
1.42910338463947,1.42910338463947,1.52438425597444,                   57P    122
1.52438425597444,1.52438425597444,1.52438425597444,1.,1.,1.,1.,       57P    123
1.,1.,1.,1.,1.,1.,10.,1.38777878078145D-16,12.5175001490116,10.,      57P    124
-0.317557202206102,12.5175001490116,9.98335940913512,                 57P    125
-0.655361481253895,12.4537575082962,9.92324260889925,                 57P    126
-1.27523327052331,12.1964071851447,9.88057230769857,                  57P    127
-1.55740936287064,12.0028734294152,9.79998051098766,                  57P    128
-2.0029053355742,11.5573774567117,9.75670363893706,                   57P    129
-2.19641410331191,11.2752147045729,9.69518597002872,                  57P    130
-2.45374617786253,10.6553902550495,9.67792300806325,-2.5175,          57P    131
10.3176030534615,9.67792300806325,-2.5175,10.0000001490116,           57P    132
1.14328819198083,1.52438425597444,0.,0.,0.;                           57P    133
126,8,2,0,1,0,0,-3.14159265358979,-3.14159265358979,                  59P    134
-3.14159265358979,-1.5707963267949,-1.5707963267949,0.,0.,            59P    135
1.5707963267949,1.5707963267949,3.14159265358979,                     59P    136
3.14159265358979,3.14159265358979,1.,0.707106781186548,1.,            59P    137
0.707106781186548,1.,0.707106781186548,1.,0.707106781186548,1.,       59P    138
-10.,1.22464679914735D-15,50.,-10.,10.,50.,6.12323399573677D-16,      59P    139
10.,50.,10.,10.,50.,10.,0.,50.,10.,-10.,50.,                          59P    140
6.12323399573677D-16,-10.,50.,-10.,-10.,50.,-10.,                     59P    141
-1.22464679914735D-15,50.,-3.14159265358979,3.14159265358979,0.,      59P    142
0.,0.;                                                                59P    143
126,1,1,0,0,1,0,-5.,-5.,0.,0.,1.,1.,-10.,0.,50.,-10.,0.,0.,-5.,       61P    144
0.,0.,0.,0.;                                                          61P    145
126,8,2,0,1,0,0,-3.14159265358979,-3.14159265358979,                  63P    146
-3.14159265358979,-1.5707963267949,-1.5707963267949,0.,0.,            63P    147
1.5707963267949,1.5707963267949,3.14159265358979,                     63P    148
3.14159265358979,3.14159265358979,1.,0.707106781186548,1.,            63P    149
0.707106781186548,1.,0.707106781186548,1.,0.707106781186548,1.,       63P    150
-10.,1.22464679914735D-15,0.,-10.,10.,0.,6.12323399573677D-16,        63P    151
10.,0.,10.,10.,0.,10.,0.,0.,10.,-10.,0.,6.12323399573677D-16,         63P    152
-10.,0.,-10.,-10.,0.,-10.,-1.22464679914735D-15,0.,                   63P    153
-3.14159265358979,3.14159265358979,0.,0.,0.;                          63P    154
126,25,3,0,0,1,0,0.,0.,0.,0.,0.0952808713349747,                      65P    155
0.0952808713349747,0.190561742669949,0.190561742669949,               65P    156
0.28582890333178,0.28582890333178,0.381096063993611,                  65P    157
0.381096063993611,0.476363224655442,0.476363224655442,                65P    158
0.571630385317273,0.571630385317273,0.666911256652247,                65P    159
0.666911256652247,0.762192127987222,0.762192127987222,                65P    160
0.857472999322197,0.857472999322197,0.952753870657171,                65P    161
0.952753870657171,1.048021031319,1.048021031319,                      65P    162
1.14328819198083,1.14328819198083,1.14328819198083,                   65P    163
1.14328819198083,1.,1.,1.,1.,1.,1.,1.,1.,1.,1.,1.,1.,1.,1.,1.,        65P    164
1.,1.,1.,1.,1.,1.,1.,1.,1.,1.,1.,-7.01918045805895,                   65P    165
-7.12257718085268,10.0000001490116,-7.01918045805895,                 65P    166
-7.12257718085268,9.6823972445617,-6.97259950948229,                  65P    167
-7.16940425552808,9.34461004297376,-6.78050223016707,                 65P    168
-7.35134615685961,8.72478559345032,-6.63455715747649,                 65P    169
-7.48557941132062,8.44262284131155,-6.289042226187,                   65P    170
-7.77812194096068,7.99712686860798,-6.06600571247393,                 65P    171
-7.95616355196127,7.80359311287854,-5.55923939599524,                 65P    172
-8.31816212279447,7.54624278972699,-5.2750126042652,                  65P    173
-8.50147543674133,7.48250014901161,-4.72498739573481,                 65P    174
-8.81903263894744,7.48250014901161,-4.42412001313989,                 65P    175
-8.97352360404837,7.54624278972699,-3.85723689642533,                 65P    176
-9.23139682248457,7.80359311287854,-3.59153008151158,                 65P    177
-9.33553130383132,7.99712686860798,-3.16542335351118,                 65P    178
-9.48848474689482,8.44262284131155,-2.97620140877,                    65P    179
-9.54776026017152,8.72478559345032,-2.72258646054644,                 65P    180
-9.62315043339062,9.34461004297376,-2.6587425500043,                  65P    181
-9.64007718085268,9.6823972445617,-2.6587425500043,                   65P    182
-9.64007718085268,10.3176030534615,-2.72258646054644,                 65P    183
-9.62315043339062,10.6553902550495,-2.97620140877,                    65P    184
-9.54776026017152,11.2752147045729,-3.16542335351118,                 65P    185
-9.48848474689482,11.5573774567117,-3.59153008151158,                 65P    186
-9.33553130383132,12.0028734294152,-3.85723689642533,                 65P    187
-9.23139682248458,12.1964071851447,-4.42412001313989,                 65P    188
-8.97352360404837,12.4537575082962,-4.72498739573481,                 65P    189
-8.81903263894744,12.5175001490116,-5.,-8.66025403784438,             65P    190
12.5175001490116,0.,1.14328819198083,0.,0.,0.;                        65P    191
126,9,3,0,0,1,0,1.14328819198083,1.14328819198083,                    67P    192
1.14328819198083,1.14328819198083,1.23855535264266,                   67P    193
1.23855535264266,1.33382251330449,1.33382251330449,                   67P    194
1.42910338463947,1.42910338463947,1.52438425597444,                   67P    195
1.52438425597444,1.52438425597444,1.52438425597444,1.,1.,1.,1.,       67P    196
1.,1.,1.,1.,1.,1.,-5.,-8.66025403784438,12.5175001490116,             67P    197
-5.2750126042652,-8.50147543674133,12.5175001490116,                  67P    198
-5.55923939599524,-8.31816212279447,12.4537575082962,                 67P    199
-6.06600571247393,-7.95616355196127,12.1964071851447,                 67P    200
-6.289042226187,-7.77812194096068,12.0028734294152,                   67P    201
-6.63455715747649,-7.48557941132062,11.5573774567117,                 67P    202
-6.78050223016707,-7.35134615685961,11.2752147045729,                 67P    203
-6.97259950948229,-7.16940425552808,10.6553902550495,                 67P    204
-7.01918045805895,-7.12257718085268,10.3176030534615,                 67P    205
-7.01918045805895,-7.12257718085268,10.0000001490116,                 67P    206
1.14328819198083,1.52438425597444,0.,0.,0.;                           67P    207
126,25,3,0,0,1,0,0.,0.,0.,0.,0.0952808713349747,                      69P    208
0.0952808713349747,0.190561742669949,0.190561742669949,               69P    209
0.28582890333178,0.28582890333178,0.381096063993611,                  69P    210
0.381096063993611,0.476363224655442,0.476363224655442,                69P    211
0.571630385317273,0.571630385317273,0.666911256652247,                69P    212
0.666911256652247,0.762192127987222,0.762192127987222,                69P    213
0.857472999322197,0.857472999322197,0.952753870657171,                69P    214
0.952753870657171,1.048021031319,1.048021031319,                      69P    215
1.14328819198083,1.14328819198083,1.14328819198083,                   69P    216
1.14328819198083,1.,1.,1.,1.,1.,1.,1.,1.,1.,1.,1.,1.,1.,1.,1.,        69P    217
1.,1.,1.,1.,1.,1.,1.,1.,1.,1.,1.,-2.6587425500043,                    69P    218
9.64007718085269,10.0000001490116,-2.6587425500043,                   69P    219
9.64007718085269,9.6823972445617,-2.72258646054644,                   69P    220
9.62315043339062,9.34461004297376,-2.97620140876999,                  69P    221
9.54776026017153,8.72478559345032,-3.16542335351117,                  69P    222
9.48848474689482,8.44262284131155,-3.59153008151157,                  69P    223
9.33553130383132,7.99712686860798,-3.85723689642533,                  69P    224
9.23139682248458,7.80359311287854,-4.42412001313989,                  69P    225
8.97352360404837,7.54624278972699,-4.7249873957348,                   69P    226
8.81903263894744,7.48250014901161,-5.27501260426519,                  69P    227
8.50147543674134,7.48250014901161,-5.55923939599523,                  69P    228
8.31816212279447,7.54624278972699,-6.06600571247392,                  69P    229
7.95616355196127,7.80359311287854,-6.28904222618699,                  69P    230
7.77812194096068,7.99712686860798,-6.63455715747649,                  69P    231
7.48557941132062,8.44262284131155,-6.78050223016706,                  69P    232
7.35134615685961,8.72478559345032,-6.97259950948229,                  69P    233
7.16940425552808,9.34461004297376,-7.01918045805895,                  69P    234
7.12257718085269,9.6823972445617,-7.01918045805895,                   69P    235
7.12257718085269,10.3176030534615,-6.97259950948229,                  69P    236
7.16940425552809,10.6553902550495,-6.78050223016706,                  69P    237
7.35134615685961,11.2752147045729,-6.63455715747649,                  69P    238
7.48557941132062,11.5573774567117,-6.28904222618699,                  69P    239
7.77812194096068,12.0028734294152,-6.06600571247393,                  69P    240
7.95616355196127,12.1964071851447,-5.55923939599523,                  69P    241
8.31816212279447,12.4537575082962,-5.27501260426519,                  69P    242
8.50147543674134,12.5175001490116,-5.,8.66025403784439,               69P    243
12.5175001490116,0.,1.14328819198083,0.,0.,0.;                        69P    244
126,9,3,0,0,1,0,1.14328819198083,1.14328819198083,                    71P    245
1.14328819198083,1.14328819198083,1.23855535264266,                   71P    246
1.23855535264266,1.33382251330449,1.33382251330449,                   71P    247
1.42910338463947,1.42910338463947,1.52438425597444,                   71P    248
1.52438425597444,1.52438425597444,1.52438425597444,1.,1.,1.,1.,       71P    249
1.,1.,1.,1.,1.,1.,-5.,8.66025403784439,12.5175001490116,              71P    250
-4.7249873957348,8.81903263894744,12.5175001490116,                   71P    251
-4.42412001313989,8.97352360404837,12.4537575082962,                  71P    252
-3.85723689642533,9.23139682248458,12.1964071851447,                  71P    253
-3.59153008151157,9.33553130383132,12.0028734294152,                  71P    254
-3.16542335351117,9.48848474689482,11.5573774567117,                  71P    255
-2.97620140876999,9.54776026017153,11.2752147045729,                  71P    256
-2.72258646054644,9.62315043339062,10.6553902550495,                  71P    257
-2.6587425500043,9.64007718085269,10.3176030534615,                   71P    258
-2.6587425500043,9.64007718085269,10.0000001490116,                   71P    259
1.14328819198083,1.52438425597444,0.,0.,0.;                           71P    260
126,8,2,0,1,0,0,-3.14159265358979,-3.14159265358979,                  73P    261
-3.14159265358979,-1.5707963267949,-1.5707963267949,0.,0.,            73P    262
1.5707963267949,1.5707963267949,3.14159265358979,                     73P    263
3.14159265358979,3.14159265358979,1.,0.707106781186548,1.,            73P    264
0.707106781186548,1.,0.707106781186548,1.,0.707106781186548,1.,       73P    265
-25.,-3.06161699786838D-15,50.,-25.,-25.,50.,                         73P    266
1.53080849893419D-15,-25.,50.,25.,-25.,50.,25.,0.,50.,25.,25.,        73P    267
50.,1.53080849893419D-15,25.,50.,-25.,25.,50.,-25.,                   73P    268
3.06161699786838D-15,50.,-3.14159265358979,3.14159265358979,0.,       73P    269
0.,0.;                                                                73P    270
126,1,1,0,0,1,0,-2.,-2.,0.,0.,1.,1.,-25.,0.,50.,-25.,0.,0.,-2.,       75P    271
0.,0.,0.,0.;                                                          75P    272
126,8,2,0,1,0,0,-3.14159265358979,-3.14159265358979,                  77P    273
-3.14159265358979,-1.5707963267949,-1.5707963267949,0.,0.,            77P    274
1.5707963267949,1.5707963267949,3.14159265358979,                     77P    275
3.14159265358979,3.14159265358979,1.,0.707106781186548,1.,            77P    276
0.707106781186548,1.,0.707106781186548,1.,0.707106781186548,1.,       77P    277
-25.,-3.06161699786838D-15,0.,-25.,-25.,0.,1.53080849893419D-15,      77P    278
-25.,0.,25.,-25.,0.,25.,0.,0.,25.,25.,0.,1.53080849893419D-15,        77P    279
25.,0.,-25.,25.,0.,-25.,3.06161699786838D-15,0.,                      77P    280
-3.14159265358979,3.14159265358979,0.,0.,0.;                          77P    281
126,18,3,0,0,1,0,-0.379599726163202,-0.379599726163202,               79P    282
-0.379599726163202,-0.379599726163202,-0.284699960722736,             79P    283
-0.284699960722736,-0.18980019528227,-0.18980019528227,               79P    284
-0.0949000976411347,-0.0949000976411347,0.,0.,0.,                     79P    285
0.0949000976411347,0.0949000976411347,0.18980019528227,               79P    286
0.18980019528227,0.284699960722736,0.284699960722736,                 79P    287
0.379599726163202,0.379599726163202,0.379599726163202,                79P    288
0.379599726163202,1.,1.,1.,1.,1.,1.,1.,1.,1.,1.,1.,1.,1.,1.,1.,       79P    289
1.,1.,1.,1.,-12.5,-21.650635094611,7.48250014901161,                  79P    290
-12.7739520256154,-21.4924688188768,7.48250014901161,                 79P    291
-13.0627286525635,-21.3181008625977,7.54576315322545,                 79P    292
-13.5878725562376,-20.9872824261689,7.80275017813378,                 79P    293
-13.8244250804923,-20.8311169047156,7.9964623658006,                  79P    294
-14.1954121801786,-20.5800980000118,8.44325607095718,                 79P    295
-14.3546689555546,-20.4685156716941,8.72619898424864,                 79P    296
-14.5652200924988,-20.31922779921,9.34639501521691,                   79P    297
-14.616679400533,-20.2818313596685,9.68366649020783,                  79P    298
-14.616679400533,-20.2818313596685,10.0000001490116,                  79P    299
-14.616679400533,-20.2818313596685,10.3163338078154,                  79P    300
-14.5652200924988,-20.31922779921,10.6536052828063,                   79P    301
-14.3546689555546,-20.4685156716941,11.2738013137746,                 79P    302
-14.1954121801786,-20.5800980000118,11.556744227066,                  79P    303
-13.8244250804923,-20.8311169047156,12.0035379322226,                 79P    304
-13.5878725562376,-20.9872824261689,12.1972501198894,                 79P    305
-13.0627286525635,-21.3181008625977,12.4542371447978,                 79P    306
-12.7739520256154,-21.4924688188768,12.5175001490116,-12.5,           79P    307
-21.650635094611,12.5175001490116,-0.379599726163202,                 79P    308
0.379599726163202,0.,0.,0.;                                           79P    309
126,17,3,0,0,1,0,0.379599726163202,0.379599726163202,                 81P    310
0.379599726163202,0.379599726163202,0.474499491603669,                81P    311
0.474499491603669,0.569399257044135,0.569399257044135,                81P    312
0.66429935468527,0.66429935468527,0.759199452326405,                  81P    313
0.759199452326405,0.85409954996754,0.85409954996754,                  81P    314
0.948999647608674,0.948999647608674,1.04389941304914,                 81P    315
1.04389941304914,1.13879917848961,1.13879917848961,                   81P    316
1.13879917848961,1.13879917848961,1.,1.,1.,1.,1.,1.,1.,1.,1.,1.,      81P    317
1.,1.,1.,1.,1.,1.,1.,1.,-12.5,-21.650635094611,12.5175001490116,      81P    318
-12.2260479743846,-21.8088013703451,12.5175001490116,                 81P    319
-11.9306525811668,-21.9717052871616,12.4542371447978,                 81P    320
-11.3815834593423,-22.2610840301716,12.1972501198894,                 81P    321
-11.1280638884411,-22.3878617647789,12.0035379322226,                 81P    322
-10.7251815902942,-22.5836365652316,11.556744227066,                  81P    323
-10.5489200716697,-22.6657658142732,11.2738013137746,                 81P    324
-10.3143574131495,-22.7734645114205,10.6536052828063,                 81P    325
-10.2562414924784,-22.7993313596685,10.3163338078154,                 81P    326
-10.2562414924784,-22.7993313596685,9.68366649020783,                 81P    327
-10.3143574131495,-22.7734645114205,9.3463950152169,                  81P    328
-10.5489200716697,-22.6657658142732,8.72619898424864,                 81P    329
-10.7251815902942,-22.5836365652316,8.44325607095718,                 81P    330
-11.1280638884411,-22.3878617647789,7.9964623658006,                  81P    331
-11.3815834593423,-22.2610840301716,7.80275017813378,                 81P    332
-11.9306525811668,-21.9717052871616,7.54576315322545,                 81P    333
-12.2260479743846,-21.8088013703451,7.48250014901161,-12.5,           81P    334
-21.650635094611,7.48250014901161,0.379599726163202,                  81P    335
1.13879917848961,0.,0.,0.;                                            81P    336
126,18,3,0,0,1,0,-0.379599726163202,-0.379599726163202,               83P    337
-0.379599726163202,-0.379599726163202,-0.284699960722736,             83P    338
-0.284699960722736,-0.18980019528227,-0.18980019528227,               83P    339
-0.0949000976411347,-0.0949000976411347,0.,0.,0.,                     83P    340
0.0949000976411347,0.0949000976411347,0.18980019528227,               83P    341
0.18980019528227,0.284699960722736,0.284699960722736,                 83P    342
0.379599726163202,0.379599726163202,0.379599726163202,                83P    343
0.379599726163202,1.,1.,1.,1.,1.,1.,1.,1.,1.,1.,1.,1.,1.,1.,1.,       83P    344
1.,1.,1.,1.,-12.5,21.650635094611,7.48250014901161,                   83P    345
-12.2260479743846,21.8088013703451,7.48250014901161,                  83P    346
-11.9306525811668,21.9717052871617,7.54576315322545,                  83P    347
-11.3815834593422,22.2610840301716,7.80275017813378,                  83P    348
-11.1280638884411,22.3878617647789,7.9964623658006,                   83P    349
-10.7251815902942,22.5836365652316,8.44325607095718,                  83P    350
-10.5489200716697,22.6657658142732,8.72619898424864,                  83P    351
-10.3143574131495,22.7734645114205,9.34639501521691,                  83P    352
-10.2562414924783,22.7993313596686,9.68366649020783,                  83P    353
-10.2562414924783,22.7993313596686,10.0000001490116,                  83P    354
-10.2562414924783,22.7993313596686,10.3163338078154,                  83P    355
-10.3143574131495,22.7734645114205,10.6536052828063,                  83P    356
-10.5489200716697,22.6657658142732,11.2738013137746,                  83P    357
-10.7251815902942,22.5836365652316,11.556744227066,                   83P    358
-11.1280638884411,22.3878617647789,12.0035379322226,                  83P    359
-11.3815834593422,22.2610840301716,12.1972501198894,                  83P    360
-11.9306525811668,21.9717052871617,12.4542371447978,                  83P    361
-12.2260479743846,21.8088013703451,12.5175001490116,-12.5,            83P    362
21.650635094611,12.5175001490116,-0.379599726163202,                  83P    363
0.379599726163202,0.,0.,0.;                                           83P    364
126,17,3,0,0,1,0,0.379599726163202,0.379599726163202,                 85P    365
0.379599726163202,0.379599726163202,0.474499491603669,                85P    366
0.474499491603669,0.569399257044135,0.569399257044135,                85P    367
0.66429935468527,0.66429935468527,0.759199452326405,                  85P    368
0.759199452326405,0.85409954996754,0.85409954996754,                  85P    369
0.948999647608674,0.948999647608674,1.04389941304914,                 85P    370
1.04389941304914,1.13879917848961,1.13879917848961,                   85P    371
1.13879917848961,1.13879917848961,1.,1.,1.,1.,1.,1.,1.,1.,1.,1.,      85P    372
1.,1.,1.,1.,1.,1.,1.,1.,-12.5,21.650635094611,12.5175001490116,       85P    373
-12.7739520256154,21.4924688188769,12.5175001490116,                  85P    374
-13.0627286525635,21.3181008625977,12.4542371447978,                  85P    375
-13.5878725562375,20.987282426169,12.1972501198894,                   85P    376
-13.8244250804923,20.8311169047156,12.0035379322226,                  85P    377
-14.1954121801786,20.5800980000118,11.556744227066,                   85P    378
-14.3546689555546,20.4685156716941,11.2738013137746,                  85P    379
-14.5652200924988,20.31922779921,10.6536052828063,                    85P    380
-14.616679400533,20.2818313596686,10.3163338078154,                   85P    381
-14.616679400533,20.2818313596686,9.68366649020783,                   85P    382
-14.5652200924988,20.31922779921,9.3463950152169,                     85P    383
-14.3546689555546,20.4685156716941,8.72619898424864,                  85P    384
-14.1954121801786,20.5800980000118,8.44325607095718,                  85P    385
-13.8244250804923,20.8311169047156,7.9964623658006,                   85P    386
-13.5878725562375,20.987282426169,7.80275017813378,                   85P    387
-13.0627286525635,21.3181008625977,7.54576315322545,                  85P    388
-12.7739520256154,21.4924688188769,7.48250014901161,-12.5,            85P    389
21.650635094611,7.48250014901161,0.379599726163202,                   85P    390
1.13879917848961,0.,0.,0.;                                            85P    391
126,1,1,0,0,1,0,-9.21521158706058D-16,-9.21521158706058D-16,          87P    392
4.99999992549419,4.99999992549419,1.,1.,-12.5,21.650635094611,        87P    393
12.5175001490116,-5.,8.66025403784439,12.5175001490116,               87P    394
-9.21521158706058D-16,4.99999992549419,0.,0.,0.;                      87P    395
126,1,1,0,0,1,0,3.65264141236958D-16,3.65264141236958D-16,            89P    396
4.9999999254942,4.9999999254942,1.,1.,-12.5,-21.650635094611,         89P    397
12.5175001490116,-5.,-8.66025403784438,12.5175001490116,              89P    398
3.65264141236958D-16,4.9999999254942,0.,0.,0.;                        89P    399
128,1,8,1,2,0,1,0,0,1,-2.56083097699595D-18,                          91P    400
-2.56083097699595D-18,5.10735892120667,5.10735892120667,              91P    401
-3.14159265358979,-3.14159265358979,-3.14159265358979,                91P    402
-1.5707963267949,-1.5707963267949,0.,0.,1.5707963267949,              91P    403
1.5707963267949,3.14159265358979,3.14159265358979,                    91P    404
3.14159265358979,1.,1.,0.707106781186548,0.707106781186548,1.,        91P    405
1.,0.707106781186548,0.707106781186548,1.,1.,0.707106781186548,       91P    406
0.707106781186548,1.,1.,0.707106781186548,0.707106781186548,1.,       91P    407
1.,25.,0.,12.5175001490116,9.67792300806325,0.,12.5175001490116,      91P    408
25.,2.5175,12.5175001490116,9.67792300806325,2.5175,                  91P    409
12.5175001490116,25.,2.5175,10.0000001490116,9.67792300806325,        91P    410
2.5175,10.0000001490116,25.,2.5175,7.48250014901161,                  91P    411
9.67792300806325,2.5175,7.48250014901161,25.,0.,                      91P    412
7.48250014901161,9.67792300806325,0.,7.48250014901161,25.,            91P    413
-2.5175,7.48250014901161,9.67792300806325,-2.5175,                    91P    414
7.48250014901161,25.,-2.5175,10.0000001490116,9.67792300806325,       91P    415
-2.5175,10.0000001490116,25.,-2.5175,12.5175001490116,                91P    416
9.67792300806325,-2.5175,12.5175001490116,25.,0.,                     91P    417
12.5175001490116,9.67792300806325,0.,12.5175001490116,                91P    418
-2.56083097699595D-18,5.10735892120667,-3.14159265358979,             91P    419
3.14159265358979;                                                     91P    420
128,1,8,1,2,0,1,0,0,1,0.,0.,5.,5.,-3.14159265358979,                  93P    421
-3.14159265358979,-3.14159265358979,-1.5707963267949,                 93P    422
-1.5707963267949,0.,0.,1.5707963267949,1.5707963267949,               93P    423
3.14159265358979,3.14159265358979,3.14159265358979,1.,1.,             93P    424
0.707106781186548,0.707106781186548,1.,1.,0.707106781186548,          93P    425
0.707106781186548,1.,1.,0.707106781186548,0.707106781186548,1.,       93P    426
1.,0.707106781186548,0.707106781186548,1.,1.,-10.,0.,0.,-10.,0.,      93P    427
50.,-10.,-10.,0.,-10.,-10.,50.,0.,-10.,0.,0.,-10.,50.,10.,-10.,       93P    428
0.,10.,-10.,50.,10.,0.,0.,10.,0.,50.,10.,10.,0.,10.,10.,50.,0.,       93P    429
10.,0.,0.,10.,50.,-10.,10.,0.,-10.,10.,50.,-10.,0.,0.,-10.,0.,        93P    430
50.,0.,5.,-3.14159265358979,3.14159265358979;                         93P    431
128,1,8,1,2,0,1,0,0,1,0.,0.,2.,2.,-3.14159265358979,                  95P    432
-3.14159265358979,-3.14159265358979,-1.5707963267949,                 95P    433
-1.5707963267949,0.,0.,1.5707963267949,1.5707963267949,               95P    434
3.14159265358979,3.14159265358979,3.14159265358979,1.,1.,             95P    435
0.707106781186548,0.707106781186548,1.,1.,0.707106781186548,          95P    436
0.707106781186548,1.,1.,0.707106781186548,0.707106781186548,1.,       95P    437
1.,0.707106781186548,0.707106781186548,1.,1.,-25.,0.,50.,-25.,        95P    438
0.,0.,-25.,-25.,50.,-25.,-25.,0.,0.,-25.,50.,0.,-25.,0.,25.,          95P    439
-25.,50.,25.,-25.,0.,25.,0.,50.,25.,0.,0.,25.,25.,50.,25.,25.,        95P    440
0.,0.,25.,50.,0.,25.,0.,-25.,25.,50.,-25.,25.,0.,-25.,0.,50.,         95P    441
-25.,0.,0.,0.,2.,-3.14159265358979,3.14159265358979;                  95P    442
128,1,1,1,1,0,0,1,0,0,-2.501,-2.501,2.501,2.501,-2.501,-2.501,        97P    443
2.501,2.501,1.,1.,1.,1.,-25.01,-25.01,50.,25.01,-25.01,50.,           97P    444
-25.01,25.01,50.,25.01,25.01,50.,-2.501,2.501,-2.501,2.501;           97P    445
128,1,1,1,1,0,0,1,0,0,-2.501,-2.501,2.501,2.501,-2.501,-2.501,        99P    446
2.501,2.501,1.,1.,1.,1.,25.01,-25.01,0.,-25.01,-25.01,0.,25.01,       99P    447
25.01,0.,-25.01,25.01,0.,-2.501,2.501,-2.501,2.501;                   99P    448
128,1,8,1,2,0,1,0,0,1,-9.21521158706058D-16,                         101P    449
-9.21521158706058D-16,5.10735892120667,5.10735892120667,             101P    450
-3.14159265358979,-3.14159265358979,-3.14159265358979,               101P    451
-1.5707963267949,-1.5707963267949,0.,0.,1.5707963267949,             101P    452
1.5707963267949,3.14159265358979,3.14159265358979,                   101P    453
3.14159265358979,1.,1.,0.707106781186548,0.707106781186548,1.,       101P    454
1.,0.707106781186548,0.707106781186548,1.,1.,0.707106781186548,      101P    455
0.707106781186548,1.,1.,0.707106781186548,0.707106781186548,1.,      101P    456
1.,-12.5,21.650635094611,12.5175001490116,-4.83896150403161,         101P    457
8.38132718085268,12.5175001490116,-14.6802189540273,                 101P    458
20.391885094611,12.5175001490116,-7.01918045805894,                  101P    459
7.12257718085268,12.5175001490116,-14.6802189540273,                 101P    460
20.391885094611,10.0000001490116,-7.01918045805894,                  101P    461
7.12257718085268,10.0000001490116,-14.6802189540273,                 101P    462
20.391885094611,7.48250014901161,-7.01918045805894,                  101P    463
7.12257718085268,7.48250014901161,-12.5,21.650635094611,             101P    464
7.48250014901161,-4.83896150403162,8.38132718085268,                 101P    465
7.48250014901161,-10.3197810459727,22.909385094611,                  101P    466
7.48250014901161,-2.65874255000429,9.64007718085268,                 101P    467
7.48250014901161,-10.3197810459727,22.909385094611,                  101P    468
10.0000001490116,-2.65874255000429,9.64007718085268,                 101P    469
10.0000001490116,-10.3197810459727,22.909385094611,                  101P    470
12.5175001490116,-2.65874255000429,9.64007718085267,                 101P    471
12.5175001490116,-12.5,21.650635094611,12.5175001490116,             101P    472
-4.83896150403161,8.38132718085268,12.5175001490116,                 101P    473
-9.21521158706058D-16,5.10735892120667,-3.14159265358979,            101P    474
3.14159265358979;                                                    101P    475
128,1,8,1,2,0,1,0,0,1,3.65264141236958D-16,3.65264141236958D-16,     103P    476
5.10735892120667,5.10735892120667,-3.14159265358979,                 103P    477
-3.14159265358979,-3.14159265358979,-1.5707963267949,                103P    478
-1.5707963267949,0.,0.,1.5707963267949,1.5707963267949,              103P    479
3.14159265358979,3.14159265358979,3.14159265358979,1.,1.,            103P    480
0.707106781186548,0.707106781186548,1.,1.,0.707106781186548,         103P    481
0.707106781186548,1.,1.,0.707106781186548,0.707106781186548,1.,      103P    482
1.,0.707106781186548,0.707106781186548,1.,1.,-12.5,                  103P    483
-21.650635094611,12.5175001490116,-4.83896150403163,                 103P    484
-8.38132718085268,12.5175001490116,-10.3197810459727,                103P    485
-22.909385094611,12.5175001490116,-2.65874255000431,                 103P    486
-9.64007718085269,12.5175001490116,-10.3197810459727,                103P    487
-22.909385094611,10.0000001490116,-2.6587425500043,                  103P    488
-9.64007718085268,10.0000001490116,-10.3197810459727,                103P    489
-22.909385094611,7.48250014901161,-2.6587425500043,                  103P    490
-9.64007718085268,7.48250014901161,-12.5,-21.650635094611,           103P    491
7.48250014901161,-4.83896150403163,-8.38132718085268,                103P    492
7.48250014901161,-14.6802189540273,-20.391885094611,                 103P    493
7.48250014901161,-7.01918045805895,-7.12257718085268,                103P    494
7.48250014901161,-14.6802189540273,-20.391885094611,                 103P    495
10.0000001490116,-7.01918045805895,-7.12257718085268,                103P    496
10.0000001490116,-14.6802189540273,-20.391885094611,                 103P    497
12.5175001490116,-7.01918045805895,-7.12257718085268,                103P    498
12.5175001490116,-12.5,-21.650635094611,12.5175001490116,            103P    499
-4.83896150403163,-8.38132718085268,12.5175001490116,                103P    500
3.65264141236958D-16,5.10735892120667,-3.14159265358979,             103P    501
3.14159265358979;                                                    103P    502
502,16,25.,5.55111512312578D-16,7.48250014901161,25.,0.,             105P    503
12.5175001490116,10.,1.38777878078145D-16,12.5175001490116,          105P    504
9.67792300806325,-2.5175,10.0000001490116,-10.,                      105P    505
-1.22464679914735D-15,50.,-10.,-1.22464679914735D-15,0.,             105P    506
-7.01918045805895,-7.12257718085268,10.0000001490116,-5.,            105P    507
-8.66025403784438,12.5175001490116,-2.6587425500043,                 105P    508
9.64007718085269,10.0000001490116,-5.,8.66025403784439,              105P    509
12.5175001490116,-25.,-3.06161699786838D-15,50.,-25.,                105P    510
-3.06161699786838D-15,0.,-12.5,-21.650635094611,                     105P    511
7.48250014901161,-12.5,-21.650635094611,12.5175001490116,-12.5,      105P    512
21.650635094611,7.48250014901161,-12.5,21.650635094611,              105P    513
12.5175001490116;                                                    105P    514
504,21,49,105,1,105,2,51,105,2,105,1,53,105,2,105,3,55,105,4,        107P    515
105,3,57,105,3,105,4,59,105,5,105,5,61,105,5,105,6,63,105,6,105,     107P    516
6,65,105,7,105,8,67,105,8,105,7,69,105,9,105,10,71,105,10,105,9,     107P    517
73,105,11,105,11,75,105,11,105,12,77,105,12,105,12,79,105,13,        107P    518
105,14,81,105,14,105,13,83,105,15,105,16,85,105,16,105,15,87,        107P    519
105,16,105,10,89,105,14,105,8;                                       107P    520
406,1,5HBody1;                                                       109P    521
314,62.7450980392157,62.7450980392157,62.7450980392157,13HSteel      111P    522
- Satin;                                                             111P    523
S      1G      3D    112P    523                                        T      1
